<?xml version="1.0" encoding="utf-8"?>
<!-- Svg Vector Icons : http://www.onlinewebfonts.com/icon -->
<!DOCTYPE svg PUBLIC "-//W3C//DTD SVG 1.1//EN" "http://www.w3.org/Graphics/SVG/1.1/DTD/svg11.dtd">
<svg version="1.1" xmlns="http://www.w3.org/2000/svg" xmlns:xlink="http://www.w3.org/1999/xlink" x="0px" y="0px" viewBox="0 0 1000 1000" enable-background="new 0 0 1000 1000" xml:space="preserve">
<metadata> Svg Vector Icons : http://www.onlinewebfonts.com/icon </metadata>
<g><g transform="translate(0.000000,511.000000) scale(0.100000,-0.100000)"><path d="M6160.2,4137.4c-298.9-126.7-463.3-451.4-388-764.2c25.7-104.9,25.7-104.9-31.7-146.5c-104.9-77.2-411.8-340.5-578.1-496.9L5000,2577.3L4863.4,2704c-776.1,732.5-1577.9,1249.2-2128.3,1372c-231.6,51.5-500.9,35.6-651.4-39.6c-297-148.5-423.7-429.6-403.9-900.8c17.8-394,142.5-853.3,382.1-1399.7c59.4-136.6,104.9-253.4,101-257.4c-5.9-4-122.8-37.6-263.3-75.2c-774.1-203.9-1374-504.8-1613.5-805.8C145.5,419.3,100,302.5,100,106.5c0-146.5,7.9-184.1,61.4-297c192-405.9,799.8-758.3,1730.3-1003.8c146.5-37.6,269.3-71.3,273.2-75.2c4-2-47.5-130.7-112.8-281.1c-241.5-568.2-354.4-980-372.2-1372c-15.8-376.2,43.6-578.1,223.7-772.1c213.8-229.6,556.3-269.2,1013.6-116.8c520.7,172.2,1279,683,1906.6,1279c83.1,79.2,162.3,144.5,174.2,144.5c13.9,0,114.8-83.2,225.7-186.1c110.9-102.9,291-259.4,399.9-346.5l196-160.4l2-211.9c0-186.1,5.9-227.7,47.5-310.8c61.4-124.7,170.3-233.6,302.9-302.9c91.1-47.5,126.7-55.4,283.1-55.4c154.4,0,192,7.9,289,53.5c59.4,29.7,128.7,75.2,152.4,101l43.6,45.5l172.2-59.4c156.4-53.4,200-59.4,431.6-59.4c241.5-2,263.3,2,368.2,53.5c61.4,29.7,148.5,93,192,140.6c174.2,188.1,231.6,396,213.8,764.2c-17.8,392-134.6,823.6-362.3,1344.3c-148.5,340.5-144.5,308.8-23.8,338.6c103,25.7,103,25.7,144.5-31.7c69.3-99,156.4-170.3,269.2-223.7c89.1-41.6,138.6-51.5,267.3-51.5c140.6,0,176.2,7.9,291,65.3c235.6,114.8,360.3,314.8,362.3,584l2,156.4l130.7,87.1c170.3,114.8,372.2,330.6,443.5,475.1c49.5,101,57.4,140.6,57.4,285.1c0,140.6-7.9,186.1-51.5,277.2c-200,423.7-786,766.2-1748.2,1019.6c-140.6,37.6-259.3,71.3-263.3,77.2c-5.9,4,25.7,87.1,69.3,184.1c419.7,936.4,528.6,1680.8,306.9,2090.7c-186.1,340.5-595.9,439.5-1110.7,267.3l-201.9-67.3l-53.5,55.4C6692.7,4173,6379.9,4230.4,6160.2,4137.4z M2711.4,3775.1c469.2-116.8,1271-641.5,1922.4-1259.1l150.5-142.5l-291-312.8c-160.4-170.3-310.8-314.8-332.6-318.8c-23.8-5.9-184.1-17.8-358.3-31.7c-318.8-21.8-908.7-95-1174-144.5c-103-19.8-146.5-21.8-158.4-5.9c-33.7,43.6-201.9,441.5-281.1,659.3c-192,540.5-259.4,987.9-188.1,1261.1C2081.8,3788.9,2295.6,3878,2711.4,3775.1z M7789.5,3773.1c306.9-156.4,314.8-728.6,21.8-1554.1c-79.2-217.8-247.5-615.7-281.1-659.3c-11.9-15.8-53.5-13.9-152.4,4c-346.5,65.3-972.1,138.6-1467,172.2c-104.9,5.9-114.8,11.9-207.9,114.8c-55.4,59.4-188.1,198-295,310.8l-198,201.9l79.2,81.2c85.1,87.1,386.1,352.4,568.2,498.9l112.9,91.1l89.1-55.4c201.9-128.7,451.4-134.6,667.2-17.8c223.7,122.7,340.5,334.6,330.6,599.9c-2,71.3,0,132.7,3.9,136.6c6,5.9,85.2,31.7,176.2,59.4C7447,3818.6,7688.6,3826.5,7789.5,3773.1z M5196,1965.5c99-106.9,180.2-196,180.2-198c0-4-168.3-7.9-376.2-7.9c-205.9,0-376.2,2-376.2,5.9c0,17.8,366.3,399.9,378.1,396C5009.9,2157.6,5097,2070.5,5196,1965.5z M5578.1,1456.7c89.1-13.9,99-23.8,273.2-231.6c200-237.6,586-748.4,740.5-974.1l97-144.5l-91.1-136.6c-134.6-202-552.4-752.3-754.3-997.8c-138.6-164.3-192-213.8-237.6-221.7c-33.6-7.9-330.6-9.9-661.2-5.9l-599.9,5.9l-59.4,69.3c-306.9,366.2-667.2,833.5-863.2,1122.5l-112.8,164.3l99,142.5c158.4,233.6,544.4,742.4,738.5,976c176.2,209.9,186.1,217.8,275.2,229.7C4550.6,1470.6,5465.3,1472.6,5578.1,1456.7z M3841.8,1320.1c-142.5-178.2-617.7-809.7-657.3-877c-17.8-31.7-39.6-59.4-47.5-59.4c-27.7,0-512.8,825.6-512.8,869.1c0,19.8,431.6,91.1,793.9,130.7c338.5,37.6,392,41.6,459.3,45.5l57.4,4L3841.8,1320.1z M6593.7,1381.5c358.3-39.6,782-108.9,782-128.7c0-43.5-487-869.1-510.8-869.1c-7.9,2-79.2,97-160.4,211.8c-81.2,116.8-241.5,330.6-356.4,477.1c-114.8,146.5-227.7,289.1-247.5,314.8l-37.6,49.5l136.6-13.9C6275,1417.1,6453.2,1397.3,6593.7,1381.5z M2465.9,924.2c81.2-150.5,225.7-396,318.8-546.4l170.3-273.2l-174.2-281.1c-97-154.4-239.6-397.9-318.8-542.5c-95-170.3-156.4-263.3-176.2-263.3c-53.4,0-405.9,95-641.5,172.2c-689,225.7-1132.5,508.8-1235.4,784C258.4,375.8,840.4,803.4,1961,1116.2c152.4,41.6,295,77.2,316.8,77.2C2307.5,1193.4,2351,1132,2465.9,924.2z M8037,1116.2c694.9-192,1164.1-417.7,1415.6-681c116.8-126.7,160.4-213.8,160.4-328.7c0-166.3-91.1-300.9-324.7-477.1l-156.4-118.8l-71.3,67.3c-132.6,128.7-225.7,162.4-437.5,162.4c-150.4,0-205.9-7.9-279.1-41.6c-205.9-97-346.5-287.1-370.2-508.8l-13.9-120.8l-99-25.7c-174.2-43.6-164.3-51.5-326.7,245.5c-81.2,146.5-225.7,392-318.7,542.5l-172.2,273.2l140.6,223.7c160.4,255.4,489,829.5,489,851.3C7672.7,1209.3,7744,1195.4,8037,1116.2z M3313.2-408.2c142.5-201.9,384.1-520.7,568.2-746.4l51.5-65.3h-55.4c-166.3,0-1223.5,142.6-1249.2,168.3c-19.8,17.8,481.1,883,506.8,879C3143-172.7,3224.1-279.6,3313.2-408.2z M7035.2-432c200-334.6,348.5-609.8,334.6-621.7c-21.8-23.8-760.3-124.7-1150.3-158.4l-158.4-13.8l95,116.8c102.9,126.7,510.8,667.2,631.5,835.5c39.6,55.4,77.2,102.9,81.2,102.9C6872.9-170.7,6948.1-289.5,7035.2-432z M2826.2-1388.2c340.5-53.5,730.5-99,1114.6-128.7l257.4-17.8l99-106.9c55.4-59.4,186.1-202,293-316.8l196-209.9l-126.7-116.8c-685-641.5-1362.1-1094.8-1876.8-1261.1c-126.7-41.6-209.9-55.4-336.6-57.4c-184.1,0-245.5,21.8-340.5,120.8c-168.3,176.2-176.2,570.2-23.8,1130.4c104.9,384.1,364.3,1013.7,415.8,1013.7C2511.4-1338.7,2659.9-1360.5,2826.2-1388.2z M7603.4-1501.1c350.4-766.2,494.9-1457.1,386.1-1827.3c-37.6-124.7-164.3-237.6-298.9-265.3c-124.7-25.7-300.9-5.9-479.1,53.5l-102.9,33.7v178.2c0,211.8-39.6,312.8-170.3,455.4c-122.8,132.7-251.4,192.1-437.5,203.9c-174.2,9.9-283.1-19.8-419.7-112.9l-89.1-61.4l-174.2,142.6c-196,158.4-295,245.5-477.1,417.7l-122.8,116.8l172.2,188.1c97,104.9,227.7,245.5,293,316.8l118.8,126.7l257.4,17.8c384.1,29.7,797.9,77.2,1098.8,128.7C7555.9-1320.9,7516.3-1311,7603.4-1501.1z M5198-1754.5c-101-108.9-190.1-198-198-198s-97,89.1-198,198l-182.1,198H5000h380.1L5198-1754.5z"/><path d="M4841.6,1076.6c-427.6-77.2-748.4-405.9-813.7-833.5c-99-639.5,485.1-1215.6,1124.5-1108.7c641.4,108.9,1007.7,790,740.4,1374c-152.4,336.6-453.4,544.4-833.5,574.1C4988.1,1088.5,4891.1,1086.5,4841.6,1076.6z"/></g></g>
</svg>