<?xml version="1.0" encoding="utf-8"?>
<!-- Svg Vector Icons : http://www.onlinewebfonts.com/icon -->
<!DOCTYPE svg PUBLIC "-//W3C//DTD SVG 1.1//EN" "http://www.w3.org/Graphics/SVG/1.1/DTD/svg11.dtd">
<svg version="1.1" xmlns="http://www.w3.org/2000/svg" xmlns:xlink="http://www.w3.org/1999/xlink" x="0px" y="0px" viewBox="0 0 1000 1000" enable-background="new 0 0 1000 1000" xml:space="preserve">
<metadata> Svg Vector Icons : http://www.onlinewebfonts.com/icon </metadata>
<g><g><path d="M539.9,449.9c0.4-0.5,0.7-1,1-1.5v1.5H539.9z M990,10v980H10V10H990L990,10z M313.9,386.2H167.8v439.6h146.1V386.2z M323.5,250.3c-0.9-43.2-31.7-76-81.7-76c-49.9,0-82.6,32.8-82.6,76c0,42.1,31.7,75.9,80.7,75.9h1C291.8,326.2,323.5,292.4,323.5,250.3z M840.8,573.8c0-135-72.1-197.8-168.3-197.8c-77.5,0-112.2,42.6-131.7,72.5v-62.2H394.8c1.9,41.2,0,439.6,0,439.6h146.1V580.3c0-13.3,1-26.2,4.8-35.6c10.6-26.2,34.7-53.5,75-53.5c52.9,0,74.1,40.3,74.1,99.4v235.2h146.1L840.8,573.8L840.8,573.8z"/></g><g></g><g></g><g></g><g></g><g></g><g></g><g></g><g></g><g></g><g></g><g></g><g></g><g></g><g></g><g></g></g>
</svg>